<svg width="27" height="39" viewBox="0 0 27 39" fill="none" xmlns="http://www.w3.org/2000/svg">
<mask id="path-1-outside-1_1710_44" maskUnits="userSpaceOnUse" x="-14.2426" y="-2.24258" width="43.8406" height="43.8406" fill="black">
<rect fill="white" x="-14.2426" y="-2.24258" width="43.8406" height="43.8406"/>
<path fill-rule="evenodd" clip-rule="evenodd" d="M20.052 24.981L22.5269 22.5062C24.089 20.9441 24.089 18.4114 22.5269 16.8493L20.052 14.3744L10.3293 4.65172C8.86486 3.18725 6.49049 3.18725 5.02603 4.65172V4.65172C3.56156 6.11618 3.56156 8.49055 5.02603 9.95502L11.9203 16.8493C13.4824 18.4114 13.4824 20.9441 11.9203 22.5062L5.02603 29.4005C3.56156 30.8649 3.56156 33.2393 5.02603 34.7038V34.7038C6.49049 36.1682 8.86486 36.1682 10.3293 34.7038L20.052 24.981Z"/>
</mask>
<path d="M22.5269 22.5062L20.4056 20.3848L17.9307 22.8597L20.052 24.981L22.1734 27.1024L24.6482 24.6275L22.5269 22.5062ZM20.052 14.3744L17.9307 16.4958L20.4056 18.9706L22.5269 16.8493L24.6482 14.728L22.1734 12.2531L20.052 14.3744ZM10.3293 4.65172L8.20801 6.77304L17.9307 16.4958L20.052 14.3744L22.1734 12.2531L12.4506 2.5304L10.3293 4.65172ZM11.9203 16.8493L14.0416 14.728L7.14735 7.8337L5.02603 9.95502L2.90471 12.0763L9.799 18.9706L11.9203 16.8493ZM5.02603 29.4005L7.14735 31.5218L14.0416 24.6275L11.9203 22.5062L9.799 20.3848L2.90471 27.2791L5.02603 29.4005ZM20.052 24.981L17.9307 22.8597L8.20801 32.5824L10.3293 34.7038L12.4506 36.8251L22.1734 27.1024L20.052 24.981ZM5.02603 34.7038L2.90471 36.8251C5.54075 39.4611 9.81461 39.4611 12.4506 36.8251L10.3293 34.7038L8.20801 32.5824C7.91511 32.8753 7.44024 32.8753 7.14735 32.5824L5.02603 34.7038ZM5.02603 29.4005L2.90471 27.2791C0.268668 29.9152 0.268668 34.189 2.90471 36.8251L5.02603 34.7038L7.14735 32.5824C6.85445 32.2895 6.85445 31.8147 7.14735 31.5218L5.02603 29.4005ZM5.02603 4.65172L2.90471 2.5304C0.268668 5.16643 0.268668 9.4403 2.90471 12.0763L5.02603 9.95502L7.14735 7.8337C6.85445 7.5408 6.85445 7.06593 7.14735 6.77304L5.02603 4.65172ZM10.3293 4.65172L12.4506 2.5304C9.81461 -0.105644 5.54075 -0.105644 2.90471 2.5304L5.02603 4.65172L7.14735 6.77304C7.44024 6.48014 7.91511 6.48014 8.20801 6.77304L10.3293 4.65172ZM11.9203 16.8493L9.799 18.9706C10.1895 19.3612 10.1895 19.9943 9.799 20.3848L11.9203 22.5062L14.0416 24.6275C16.7753 21.8938 16.7753 17.4617 14.0416 14.728L11.9203 16.8493ZM22.5269 22.5062L24.6482 24.6275C27.3819 21.8938 27.3819 17.4617 24.6482 14.728L22.5269 16.8493L20.4056 18.9706C20.7961 19.3612 20.7961 19.9943 20.4056 20.3848L22.5269 22.5062Z" fill="black" mask="url(#path-1-outside-1_1710_44)"/>
</svg>
